<mxfile host="65bd71144e" modified="2021-01-28T04:56:08.719Z" agent="5.0 (Macintosh; Intel Mac OS X 10_15_7) AppleWebKit/537.36 (KHTML, like Gecko) Code/1.49.2 Chrome/83.0.4103.122 Electron/9.2.1 Safari/537.36" etag="uIXj2gxMkXkFNfB5Loax" version="13.10.0" type="embed">
    <diagram id="hIlcHr-2q0lRaDiiGGw_" name="Page-1">
        <mxGraphModel dx="728" dy="571" grid="1" gridSize="10" guides="1" tooltips="1" connect="1" arrows="1" fold="1" page="1" pageScale="1" pageWidth="850" pageHeight="1100" math="0" shadow="0">
            <root>
                <mxCell id="0"/>
                <mxCell id="1" parent="0"/>
            </root>
        </mxGraphModel>
    </diagram>
</mxfile>